<?xml version="1.0" encoding="utf-8"?>
<svg id="master-artboard" viewBox="0 0 1400 980" version="1.1" xmlns="http://www.w3.org/2000/svg" x="0px" y="0px" width="1400px" height="980px" enable-background="new 0 0 1400 980" xmlns:xlink="http://www.w3.org/1999/xlink">
<path fill="#A2C8DB" d="M578.378,143.652c-0.045,0-0.09,0-0.136,0.003c-6.764-25.406-27.249-44.093-52.353-48.994L477.064,261.84&#10;&#9;&#9;&#9;h101.313c32.583,0,59.09-26.51,59.09-59.095C637.468,170.162,610.96,143.652,578.378,143.652z" transform="matrix(1, 0, 0, 1, 130.49999906122684, 275.99999852478504)"/><path fill="#BDEAFF" d="M512.761,93.345c-36.958,0-67.113,29.703-67.831,66.495c-3.134-0.584-6.239-0.881-9.271-0.881&#10;&#9;&#9;&#9;c-28.362,0-51.439,23.077-51.439,51.441c0,28.362,23.077,51.439,51.439,51.439h41.405l48.825-167.179&#10;&#9;&#9;&#9;C521.626,93.828,517.247,93.345,512.761,93.345z" transform="matrix(1, 0, 0, 1, 130.49999906122684, 275.99999852478504)"/><path fill="#E6E8E7" d="M693.615,136.411c-0.031,0-0.065,0-0.096,0.002c-4.751-17.839-19.133-30.962-36.767-34.406L622.468,219.41&#10;&#9;&#9;&#9;h71.147c22.882,0,41.495-18.616,41.495-41.498C735.11,155.027,716.497,136.411,693.615,136.411z" transform="matrix(1, 0, 0, 1, 130.49999906122684, 275.99999852478504)"/><path fill="#FBFDFC" d="M647.535,101.084c-25.954,0-47.133,20.86-47.636,46.695c-2.199-0.409-4.382-0.618-6.511-0.618&#10;&#9;&#9;&#9;c-19.917,0-36.123,16.205-36.123,36.126c0,19.917,16.205,36.123,36.123,36.123h29.079l34.285-117.403&#10;&#9;&#9;&#9;C653.76,101.422,650.686,101.084,647.535,101.084z" transform="matrix(1, 0, 0, 1, 130.49999906122684, 275.99999852478504)"/><defs>
			<path d="M 396.899994 336.063995 H 990.321991 V 684.173004 H 396.899994 V 336.063995 Z" id="SVGID_1_"/>
		</defs><clipPath id="SVGID_2_">
			<use overflow="visible" xlink:href="#SVGID_1_"/>
		</clipPath>
</svg>